<?xml version="1.0" encoding="UTF-8" standalone="no"?>
<!DOCTYPE svg PUBLIC "-//W3C//DTD SVG 1.1//EN" "http://www.w3.org/Graphics/SVG/1.1/DTD/svg11.dtd">
<svg version="1.1" xmlns="http://www.w3.org/2000/svg" xmlns:xlink="http://www.w3.org/1999/xlink" preserveAspectRatio="xMidYMid meet" viewBox="0 0 250 250" width="250" height="250"><defs><path d="M180.41 145.02L180.61 145.04L180.81 145.07L181.01 145.1L181.2 145.15L181.39 145.2L181.58 145.25L181.77 145.32L181.95 145.39L182.13 145.47L182.3 145.56L182.47 145.65L182.64 145.75L182.8 145.85L182.95 145.96L183.11 146.08L183.26 146.2L183.4 146.33L183.54 146.46L183.67 146.6L183.8 146.74L183.92 146.89L184.04 147.05L184.15 147.2L184.25 147.36L184.35 147.53L184.44 147.7L184.53 147.87L184.61 148.05L184.68 148.23L184.75 148.42L184.8 148.61L184.85 148.8L184.9 148.99L184.93 149.19L184.96 149.39L184.98 149.59L185 149.79L185 150L184.95 152.47L184.8 154.91L184.55 157.33L184.21 159.72L183.78 162.08L183.25 164.4L182.64 166.69L181.94 168.94L181.15 171.16L180.28 173.33L179.33 175.46L178.29 177.55L177.18 179.59L176 181.58L174.74 183.52L173.41 185.41L172.01 187.25L170.54 189.03L169.01 190.75L167.41 192.41L165.75 194.01L164.03 195.54L162.25 197.01L160.41 198.41L158.52 199.74L156.58 201L154.59 202.18L152.55 203.29L150.46 204.33L148.33 205.28L146.16 206.15L143.94 206.94L141.69 207.64L139.4 208.25L137.08 208.78L134.72 209.21L132.33 209.55L129.91 209.8L127.47 209.95L125 210L122.53 209.95L120.09 209.8L117.67 209.55L115.28 209.21L112.92 208.78L110.6 208.25L108.31 207.64L106.06 206.94L103.84 206.15L101.67 205.28L99.54 204.33L97.45 203.29L95.41 202.18L93.42 201L91.48 199.74L89.59 198.41L87.75 197.01L85.97 195.54L84.25 194.01L82.59 192.41L80.99 190.75L79.46 189.03L77.99 187.25L76.59 185.41L75.26 183.52L74 181.58L72.82 179.59L71.71 177.55L70.67 175.46L69.72 173.33L68.85 171.16L68.06 168.94L67.36 166.69L66.75 164.4L66.22 162.08L65.79 159.72L65.45 157.33L65.2 154.91L65.05 152.47L65 150L65 149.79L65.02 149.59L65.04 149.39L65.07 149.19L65.1 148.99L65.15 148.8L65.2 148.61L65.25 148.42L65.32 148.23L65.39 148.05L65.47 147.87L65.56 147.7L65.65 147.53L65.75 147.36L65.85 147.2L65.96 147.05L66.08 146.89L66.2 146.74L66.33 146.6L66.46 146.46L66.6 146.33L66.74 146.2L66.89 146.08L67.05 145.96L67.2 145.85L67.36 145.75L67.53 145.65L67.7 145.56L67.87 145.47L68.05 145.39L68.23 145.32L68.42 145.25L68.61 145.2L68.8 145.15L68.99 145.1L69.19 145.07L69.39 145.04L69.59 145.02L69.79 145L70 145L180 145L180.21 145L180.41 145.02ZM75.47 156.88L75.77 158.74L76.13 160.58L76.56 162.39L77.05 164.18L77.6 165.94L78.22 167.67L78.9 169.37L79.65 171.04L80.44 172.68L81.3 174.28L82.21 175.85L83.18 177.38L84.2 178.87L85.27 180.33L86.39 181.74L87.57 183.11L88.78 184.44L90.05 185.72L91.36 186.96L92.72 188.15L94.11 189.29L95.55 190.39L97.03 191.43L98.55 192.41L100.1 193.35L101.69 194.23L103.31 195.05L104.97 195.81L106.66 196.52L108.38 197.16L110.13 197.74L111.9 198.26L113.71 198.71L115.53 199.1L117.38 199.42L119.26 199.67L121.15 199.85L123.07 199.96L125 200L126.93 199.96L128.85 199.85L130.74 199.67L132.62 199.42L134.47 199.1L136.29 198.71L138.1 198.26L139.87 197.74L141.62 197.16L143.34 196.52L145.03 195.81L146.69 195.05L148.31 194.23L149.9 193.35L151.45 192.41L152.97 191.43L154.45 190.39L155.89 189.29L157.28 188.15L158.64 186.96L159.95 185.72L161.22 184.44L162.43 183.11L163.61 181.74L164.73 180.33L165.8 178.87L166.82 177.38L167.79 175.85L168.7 174.28L169.56 172.68L170.35 171.04L171.1 169.37L171.78 167.67L172.4 165.94L172.95 164.18L173.44 162.39L173.87 160.58L174.23 158.74L174.53 156.88L174.75 155L150 155L150 170L150 170.21L149.98 170.41L149.96 170.61L149.93 170.81L149.9 171.01L149.85 171.2L149.8 171.39L149.75 171.58L149.68 171.77L149.61 171.95L149.53 172.13L149.44 172.3L149.35 172.47L149.25 172.64L149.15 172.8L149.04 172.95L148.92 173.11L148.8 173.26L148.67 173.4L148.54 173.54L148.4 173.67L148.26 173.8L148.11 173.92L147.95 174.04L147.8 174.15L147.64 174.25L147.47 174.35L147.3 174.44L147.13 174.53L146.95 174.61L146.77 174.68L146.58 174.75L146.39 174.8L146.2 174.85L146.01 174.9L145.81 174.93L145.61 174.96L145.41 174.98L145.21 175L145 175L130 175L130 180L130 180.21L129.98 180.41L129.96 180.61L129.93 180.81L129.9 181.01L129.85 181.2L129.8 181.39L129.75 181.58L129.68 181.77L129.61 181.95L129.53 182.13L129.44 182.3L129.35 182.47L129.25 182.64L129.15 182.8L129.04 182.95L128.92 183.11L128.8 183.26L128.67 183.4L128.54 183.54L128.4 183.67L128.26 183.8L128.11 183.92L127.95 184.04L127.8 184.15L127.64 184.25L127.47 184.35L127.3 184.44L127.13 184.53L126.95 184.61L126.77 184.68L126.58 184.75L126.39 184.8L126.2 184.85L126.01 184.9L125.81 184.93L125.61 184.96L125.41 184.98L125.21 185L125 185L105 185L104.79 185L104.59 184.98L104.39 184.96L104.19 184.93L103.99 184.9L103.8 184.85L103.61 184.8L103.42 184.75L103.23 184.68L103.05 184.61L102.87 184.53L102.7 184.44L102.53 184.35L102.36 184.25L102.2 184.15L102.05 184.04L101.89 183.92L101.74 183.8L101.6 183.67L101.46 183.54L101.33 183.4L101.2 183.26L101.08 183.11L100.96 182.95L100.85 182.8L100.75 182.64L100.65 182.47L100.56 182.3L100.47 182.13L100.39 181.95L100.32 181.77L100.25 181.58L100.2 181.39L100.15 181.2L100.1 181.01L100.07 180.81L100.04 180.61L100.02 180.41L100 180.21L100 180L100 155L75.25 155L75.47 156.88ZM110 175L120 175L120 155L110 155L110 175ZM130 165L140 165L140 155L130 155L130 165Z" id="a4mdfb2HSk"></path><path d="M170 75C161.72 75 155 81.72 155 90C155 98.28 161.72 105 170 105C178.28 105 185 98.28 185 90C185 81.72 178.28 75 170 75Z" id="hb0grHPQ9"></path><path d="M172.87 55.12L174.28 55.26L175.67 55.46L177.04 55.71L178.4 56.02L179.74 56.38L181.05 56.79L182.34 57.25L183.61 57.76L184.85 58.31L186.07 58.91L187.26 59.56L188.42 60.25L189.55 60.99L190.66 61.76L191.73 62.58L192.76 63.44L193.77 64.33L194.74 65.26L195.67 66.23L196.56 67.24L197.42 68.27L198.24 69.34L199.01 70.45L199.75 71.58L200.44 72.74L201.09 73.93L201.69 75.15L202.24 76.39L202.75 77.66L203.21 78.95L203.62 80.26L203.98 81.6L204.29 82.96L204.54 84.33L204.74 85.72L204.88 87.13L204.97 88.56L205 90L204.97 91.44L204.88 92.87L204.74 94.28L204.54 95.67L204.29 97.04L203.98 98.4L203.62 99.74L203.21 101.05L202.75 102.34L202.24 103.61L201.69 104.85L201.09 106.07L200.44 107.26L199.75 108.42L199.01 109.55L198.24 110.66L197.42 111.73L196.56 112.76L195.67 113.77L194.74 114.74L193.77 115.67L192.76 116.56L191.73 117.42L190.66 118.24L189.55 119.01L188.42 119.75L187.26 120.44L186.07 121.09L184.85 121.69L183.61 122.24L182.34 122.75L181.05 123.21L179.74 123.62L178.4 123.98L177.04 124.29L175.67 124.54L174.28 124.74L172.87 124.88L171.44 124.97L170 125L168.56 124.97L167.13 124.88L165.72 124.74L164.33 124.54L162.96 124.29L161.6 123.98L160.26 123.62L158.95 123.21L157.66 122.75L156.39 122.24L155.15 121.69L153.93 121.09L152.74 120.44L151.58 119.75L150.45 119.01L149.34 118.24L148.27 117.42L147.24 116.56L146.23 115.67L145.26 114.74L144.33 113.77L143.44 112.76L142.58 111.73L141.76 110.66L140.99 109.55L140.25 108.42L139.56 107.26L138.91 106.07L138.31 104.85L137.76 103.61L137.25 102.34L136.79 101.05L136.38 99.74L136.02 98.4L135.71 97.04L135.46 95.67L135.26 94.28L135.12 92.87L135.03 91.44L135 90L135.03 88.56L135.12 87.13L135.26 85.72L135.46 84.33L135.71 82.96L136.02 81.6L136.38 80.26L136.79 78.95L137.25 77.66L137.76 76.39L138.31 75.15L138.91 73.93L139.56 72.74L140.25 71.58L140.99 70.45L141.76 69.34L142.58 68.27L143.44 67.24L144.33 66.23L145.26 65.26L146.23 64.33L147.24 63.44L148.27 62.58L149.34 61.76L150.45 60.99L151.58 60.25L152.74 59.56L153.93 58.91L155.15 58.31L156.39 57.76L157.66 57.25L158.95 56.79L160.26 56.38L161.6 56.02L162.96 55.71L164.33 55.46L165.72 55.26L167.13 55.12L168.56 55.03L170 55L171.44 55.03L172.87 55.12ZM167.37 65.14L166.08 65.31L164.81 65.54L163.57 65.84L162.35 66.2L161.15 66.62L159.99 67.09L158.86 67.62L157.75 68.21L156.68 68.85L155.65 69.54L154.65 70.28L153.69 71.07L152.77 71.9L151.9 72.77L151.07 73.69L150.28 74.65L149.54 75.65L148.85 76.68L148.21 77.75L147.62 78.86L147.09 79.99L146.62 81.15L146.2 82.35L145.84 83.57L145.54 84.81L145.31 86.08L145.14 87.37L145.03 88.67L145 90L145.03 91.33L145.14 92.63L145.31 93.92L145.54 95.19L145.84 96.43L146.2 97.65L146.62 98.85L147.09 100.01L147.62 101.14L148.21 102.25L148.85 103.32L149.54 104.35L150.28 105.35L151.07 106.31L151.9 107.23L152.77 108.1L153.69 108.93L154.65 109.72L155.65 110.46L156.68 111.15L157.75 111.79L158.86 112.38L159.99 112.91L161.15 113.38L162.35 113.8L163.57 114.16L164.81 114.46L166.08 114.69L167.37 114.86L168.67 114.97L170 115L171.33 114.97L172.63 114.86L173.92 114.69L175.19 114.46L176.43 114.16L177.65 113.8L178.85 113.38L180.01 112.91L181.14 112.38L182.25 111.79L183.32 111.15L184.35 110.46L185.35 109.72L186.31 108.93L187.23 108.1L188.1 107.23L188.93 106.31L189.72 105.35L190.46 104.35L191.15 103.32L191.79 102.25L192.38 101.14L192.91 100.01L193.38 98.85L193.8 97.65L194.16 96.43L194.46 95.19L194.69 93.92L194.86 92.63L194.97 91.33L195 90L194.97 88.67L194.86 87.37L194.69 86.08L194.46 84.81L194.16 83.57L193.8 82.35L193.38 81.15L192.91 79.99L192.38 78.86L191.79 77.75L191.15 76.68L190.46 75.65L189.72 74.65L188.93 73.69L188.1 72.77L187.23 71.9L186.31 71.07L185.35 70.28L184.35 69.54L183.32 68.85L182.25 68.21L181.14 67.62L180.01 67.09L178.85 66.62L177.65 66.2L176.43 65.84L175.19 65.54L173.92 65.31L172.63 65.14L171.33 65.03L170 65L168.67 65.03L167.37 65.14Z" id="dicAfPWo0"></path><path d="M134.01 15.37L138.44 15.82L142.82 16.44L147.14 17.24L151.4 18.2L155.6 19.33L159.73 20.62L163.79 22.06L167.78 23.66L171.68 25.4L175.51 27.3L179.25 29.33L182.9 31.5L186.46 33.81L189.92 36.25L193.29 38.82L196.55 41.51L199.7 44.32L202.75 47.25L205.68 50.3L208.49 53.45L211.18 56.71L213.75 60.08L216.19 63.54L218.5 67.1L220.67 70.75L222.7 74.49L224.6 78.32L226.34 82.22L227.94 86.21L229.38 90.27L230.67 94.4L231.8 98.6L232.76 102.86L233.56 107.18L234.18 111.56L234.63 115.99L234.91 120.47L235 125L234.91 129.53L234.63 134.01L234.18 138.44L233.56 142.82L232.76 147.14L231.8 151.4L230.67 155.6L229.38 159.73L227.94 163.79L226.34 167.78L224.6 171.68L222.7 175.51L220.67 179.25L218.5 182.9L216.19 186.46L213.75 189.92L211.18 193.29L208.49 196.55L205.68 199.7L202.75 202.75L199.7 205.68L196.55 208.49L193.29 211.18L189.92 213.75L186.46 216.19L182.9 218.5L179.25 220.67L175.51 222.7L171.68 224.6L167.78 226.34L163.79 227.94L159.73 229.38L155.6 230.67L151.4 231.8L147.14 232.76L142.82 233.56L138.44 234.18L134.01 234.63L129.53 234.91L125 235L120.47 234.91L115.99 234.63L111.56 234.18L107.18 233.56L102.86 232.76L98.6 231.8L94.4 230.67L90.27 229.38L86.21 227.94L82.22 226.34L78.32 224.6L74.49 222.7L70.75 220.67L67.1 218.5L63.54 216.19L60.08 213.75L56.71 211.18L53.45 208.49L50.3 205.68L47.25 202.75L44.32 199.7L41.51 196.55L38.82 193.29L36.25 189.92L33.81 186.46L31.5 182.9L29.33 179.25L27.3 175.51L25.4 171.68L23.66 167.78L22.06 163.79L20.62 159.73L19.33 155.6L18.2 151.4L17.24 147.14L16.44 142.82L15.82 138.44L15.37 134.01L15.09 129.53L15 125L15.09 120.47L15.37 115.99L15.82 111.56L16.44 107.18L17.24 102.86L18.2 98.6L19.33 94.4L20.62 90.27L22.06 86.21L23.66 82.22L25.4 78.32L27.3 74.49L29.33 70.75L31.5 67.1L33.81 63.54L36.25 60.08L38.82 56.71L41.51 53.45L44.32 50.3L47.25 47.25L50.3 44.32L53.45 41.51L56.71 38.82L60.08 36.25L63.54 33.81L67.1 31.5L70.75 29.33L74.49 27.3L78.32 25.4L82.22 23.66L86.21 22.06L90.27 20.62L94.4 19.33L98.6 18.2L102.86 17.24L107.18 16.44L111.56 15.82L115.99 15.37L120.47 15.09L125 15L129.53 15.09L134.01 15.37ZM121.18 73.07L121.43 74.26L121.65 75.44L121.82 76.63L121.96 77.83L122.06 79.02L122.12 80.22L122.15 81.41L122.14 82.6L122.09 83.79L122 84.98L121.88 86.17L121.72 87.34L121.53 88.52L121.3 89.68L121.03 90.84L120.73 91.99L120.39 93.13L120.02 94.26L119.62 95.38L119.17 96.48L118.7 97.58L118.19 98.66L117.64 99.72L117.07 100.77L116.46 101.8L115.81 102.81L115.13 103.81L114.42 104.79L113.67 105.74L112.9 106.68L112.09 107.59L111.24 108.48L110.37 109.34L109.46 110.19L108.53 111L107.56 111.79L106.56 112.55L105.52 113.28L104.46 113.99L103.98 114.29L103.5 114.58L103.01 114.86L102.53 115.14L102.04 115.41L101.55 115.67L101.05 115.92L100.55 116.17L100.05 116.41L99.55 116.64L99.05 116.86L98.54 117.07L98.04 117.28L97.53 117.48L97.02 117.67L96.51 117.85L95.99 118.03L95.48 118.19L94.96 118.35L94.44 118.51L93.92 118.65L93.4 118.79L92.88 118.92L92.36 119.04L91.83 119.16L91.31 119.26L90.78 119.36L90.26 119.46L89.73 119.54L89.2 119.62L88.67 119.69L88.15 119.75L87.62 119.81L87.09 119.85L86.56 119.89L86.03 119.93L85.5 119.95L84.97 119.97L84.44 119.98L83.92 119.99L83.34 119.98L82.77 119.97L82.2 119.95L81.63 119.92L81.06 119.88L80.49 119.83L79.93 119.77L79.36 119.71L78.79 119.64L78.23 119.56L77.67 119.47L77.11 119.37L76.55 119.26L75.99 119.15L75.43 119.03L74.88 118.9L74.33 118.76L73.78 118.61L73.23 118.45L72.68 118.29L72.14 118.12L71.6 117.94L71.06 117.75L70.53 117.56L69.99 117.35L69.46 117.14L68.94 116.92L68.41 116.7L67.89 116.46L67.37 116.22L66.86 115.97L66.35 115.71L65.84 115.44L65.33 115.17L64.83 114.89L64.34 114.6L63.84 114.3L63.36 114L62.87 113.68L62.39 113.37L26.45 141.32L27.1 144.85L27.87 148.34L28.76 151.78L29.77 155.17L30.9 158.52L32.14 161.81L33.49 165.04L34.95 168.22L36.51 171.33L38.18 174.38L39.95 177.37L41.82 180.29L43.79 183.14L45.85 185.92L48 188.62L50.24 191.24L52.58 193.79L54.99 196.25L57.49 198.64L60.07 200.93L62.73 203.13L65.46 205.25L68.27 207.27L71.15 209.19L74.1 211.02L77.11 212.74L80.19 214.36L83.33 215.88L86.53 217.29L89.79 218.59L93.1 219.77L96.47 220.85L99.88 221.8L103.34 222.64L106.85 223.35L110.41 223.94L114 224.4L117.63 224.73L121.3 224.93L125 225L129.12 224.92L133.19 224.67L137.22 224.26L141.2 223.69L145.13 222.96L149 222.09L152.82 221.06L156.57 219.89L160.26 218.58L163.89 217.13L167.44 215.54L170.92 213.82L174.32 211.97L177.64 210L180.87 207.9L184.02 205.68L187.08 203.35L190.04 200.9L192.91 198.34L195.68 195.68L198.34 192.91L200.9 190.04L203.35 187.08L205.68 184.02L207.9 180.87L210 177.64L211.97 174.32L213.82 170.92L215.54 167.44L217.13 163.89L218.58 160.26L219.89 156.57L221.06 152.82L222.09 149L222.96 145.13L223.69 141.2L224.26 137.22L224.67 133.19L224.92 129.12L225 125L224.96 122.1L224.83 119.22L224.63 116.36L224.34 113.52L223.98 110.71L223.54 107.92L223.02 105.15L222.42 102.42L221.75 99.71L221.01 97.04L220.2 94.39L219.31 91.77L218.35 89.19L217.33 86.64L216.24 84.13L215.08 81.65L213.86 79.21L212.57 76.81L211.22 74.45L209.8 72.13L208.33 69.85L206.8 67.62L205.2 65.42L203.55 63.28L201.85 61.18L200.09 59.12L198.27 57.12L196.41 55.16L194.49 53.26L192.52 51.4L190.5 49.6L188.43 47.86L186.32 46.16L184.16 44.53L181.95 42.95L179.7 41.43L177.41 39.97L175.08 38.58L172.71 37.24L170.3 35.97L120.89 71.9L121.18 73.07ZM116.81 25.33L112.78 25.74L108.8 26.31L104.87 27.04L101 27.91L97.18 28.94L93.43 30.11L89.74 31.42L86.11 32.87L82.56 34.46L79.08 36.18L75.68 38.03L72.36 40L69.13 42.1L65.98 44.32L62.92 46.65L59.96 49.1L57.09 51.66L54.32 54.32L51.66 57.09L49.1 59.96L46.65 62.92L44.32 65.98L42.1 69.13L40 72.36L38.03 75.68L36.18 79.08L34.46 82.56L32.87 86.11L31.42 89.74L30.11 93.43L28.94 97.18L27.91 101L27.04 104.87L26.31 108.8L25.74 112.78L25.33 116.81L25.08 120.88L25 125L25 125.12L25 125.23L25 125.35L25 125.46L25.01 125.58L25.01 125.7L25.01 125.81L25.02 125.93L25.02 126.04L25.03 126.16L25.03 126.27L25.04 126.39L25.04 126.5L25.05 126.62L25.06 126.73L25.06 126.84L25.07 126.96L25.08 127.07L25.08 127.19L25.09 127.3L25.1 127.42L25.11 127.53L25.11 127.65L25.12 127.76L25.13 127.87L25.14 127.99L25.15 128.1L25.15 128.22L25.16 128.33L25.17 128.45L25.18 128.56L25.18 128.67L25.19 128.79L25.2 128.9L25.2 129.02L25.21 129.13L25.22 129.25L25.22 129.36L25.23 129.48L25.24 129.59L54.79 106.61L54.7 106.5L54.62 106.4L54.53 106.3L54.44 106.2L54.36 106.09L54.27 105.99L54.19 105.89L54.1 105.78L54.02 105.68L53.93 105.57L53.85 105.47L53.76 105.36L53.68 105.26L53.6 105.15L53.51 105.05L53.43 104.94L53.35 104.83L53.27 104.72L53.19 104.62L53.1 104.51L53.02 104.4L52.94 104.29L52.86 104.18L52.78 104.07L52.7 103.96L52.62 103.85L52.54 103.74L52.46 103.63L52.39 103.52L52.31 103.41L52.23 103.3L52.15 103.18L52.08 103.07L52 102.96L51.92 102.84L51.85 102.73L51.77 102.62L51.7 102.5L51.62 102.39L51.55 102.27L51.28 101.84L51.02 101.41L50.77 100.99L50.52 100.57L50.29 100.14L50.06 99.73L49.85 99.31L49.64 98.89L49.45 98.48L49.26 98.06L49.08 97.65L48.91 97.24L48.75 96.84L48.59 96.43L48.45 96.03L48.32 95.62L48.19 95.22L48.07 94.82L47.97 94.42L47.87 94.02L47.78 93.63L47.7 93.23L47.63 92.84L47.57 92.45L47.51 92.06L47.47 91.67L47.43 91.28L47.41 90.89L47.39 90.51L47.38 90.12L47.38 89.74L47.39 89.35L47.41 88.97L47.43 88.59L47.47 88.21L47.51 87.83L47.57 87.45L47.63 87.08L47.7 86.7L47.78 86.33L47.94 85.67L48.13 85.02L48.34 84.39L48.57 83.77L48.83 83.16L49.11 82.56L49.41 81.98L49.73 81.4L50.08 80.83L50.44 80.27L50.83 79.72L51.23 79.17L51.66 78.64L52.1 78.11L52.56 77.59L53.04 77.08L53.54 76.57L54.05 76.07L54.58 75.57L55.12 75.08L55.68 74.6L56.25 74.12L56.84 73.64L57.44 73.17L58.06 72.69L58.68 72.23L59.32 71.76L59.97 71.3L60.64 70.83L61.31 70.37L61.99 69.91L62.68 69.45L63.39 68.99L64.1 68.53L64.81 68.07L65.54 67.61L66.27 67.15L67.01 66.68L67.76 66.21L68.51 65.74L75.87 61.05L76.61 60.57L77.35 60.09L78.09 59.61L78.82 59.14L79.54 58.68L80.26 58.22L80.98 57.77L81.7 57.33L82.4 56.9L83.11 56.47L83.81 56.06L84.51 55.65L85.21 55.25L85.9 54.87L86.59 54.5L87.27 54.14L87.96 53.79L88.64 53.46L89.32 53.14L90 52.84L90.67 52.56L91.34 52.28L92.01 52.03L92.68 51.8L93.35 51.58L94.02 51.38L94.68 51.2L95.35 51.04L96.01 50.9L96.67 50.79L97.33 50.69L97.99 50.62L98.66 50.57L99.32 50.55L99.98 50.54L100.64 50.57L101.3 50.62L101.96 50.7L102.62 50.8L103.29 50.93L103.66 51.02L104.03 51.11L104.4 51.21L104.76 51.32L105.13 51.44L105.48 51.57L105.84 51.7L106.2 51.85L106.55 52L106.89 52.16L107.24 52.33L107.58 52.51L107.92 52.7L108.26 52.89L108.59 53.1L108.93 53.31L109.26 53.53L109.58 53.76L109.91 54L110.23 54.25L110.55 54.51L110.86 54.77L111.18 55.05L111.49 55.33L111.8 55.62L112.11 55.92L112.41 56.23L112.71 56.55L113.01 56.88L113.31 57.21L113.61 57.56L113.9 57.91L114.19 58.28L114.48 58.65L114.76 59.03L115.05 59.42L115.33 59.82L115.61 60.22L115.88 60.64L116.16 61.07L116.18 61.1L116.2 61.13L116.22 61.16L116.24 61.2L116.26 61.23L116.28 61.26L116.3 61.3L116.32 61.33L116.34 61.36L116.36 61.4L116.38 61.43L116.4 61.47L116.42 61.5L116.44 61.53L116.46 61.57L116.48 61.6L116.5 61.63L116.52 61.67L116.54 61.7L116.55 61.74L116.57 61.77L116.59 61.8L116.61 61.84L116.63 61.87L116.67 61.94L116.7 62.01L116.72 62.04L116.74 62.08L116.76 62.11L116.78 62.14L116.8 62.18L116.82 62.21L116.83 62.25L116.85 62.28L116.87 62.31L116.89 62.35L116.91 62.38L116.93 62.42L159.67 31.33L158.86 31.03L158.05 30.73L157.23 30.45L156.4 30.17L155.58 29.9L154.75 29.63L153.92 29.38L153.09 29.12L152.25 28.88L151.41 28.64L150.57 28.41L149.72 28.19L148.87 27.97L148.02 27.76L147.17 27.56L146.31 27.36L145.45 27.17L144.59 26.99L143.72 26.82L142.86 26.65L141.99 26.5L141.11 26.35L140.24 26.2L139.36 26.07L138.48 25.94L137.6 25.82L136.71 25.71L135.83 25.61L134.94 25.51L134.05 25.42L133.15 25.34L132.25 25.27L131.36 25.21L130.45 25.15L129.55 25.11L128.64 25.07L127.74 25.04L126.83 25.02L125.91 25L125 25L120.88 25.08L116.81 25.33ZM98.78 60.61L98.3 60.67L97.81 60.75L97.31 60.86L96.8 61L96.28 61.15L95.75 61.32L95.21 61.52L94.66 61.73L94.1 61.96L93.53 62.21L92.96 62.48L92.38 62.77L91.78 63.07L91.18 63.38L90.58 63.71L89.96 64.05L89.34 64.41L88.71 64.78L88.07 65.16L87.42 65.55L86.77 65.95L86.11 66.36L85.44 66.78L84.77 67.21L84.09 67.64L83.41 68.08L82.72 68.53L82.02 68.98L81.32 69.44L73.83 74.21L73.04 74.71L72.26 75.2L71.49 75.68L70.73 76.16L69.98 76.64L69.25 77.11L68.52 77.59L67.81 78.05L67.12 78.52L66.44 78.98L65.77 79.44L65.13 79.9L64.5 80.36L63.89 80.82L63.31 81.27L62.74 81.72L62.2 82.18L61.68 82.63L61.19 83.08L60.72 83.53L60.28 83.98L59.87 84.43L59.48 84.88L59.12 85.33L58.8 85.78L58.5 86.24L58.24 86.69L58.01 87.15L57.82 87.6L57.66 88.06L57.54 88.53L57.49 88.75L57.45 88.97L57.42 89.2L57.4 89.43L57.39 89.66L57.39 89.89L57.39 90.13L57.4 90.38L57.42 90.62L57.45 90.87L57.49 91.12L57.53 91.38L57.59 91.64L57.65 91.9L57.72 92.16L57.8 92.43L57.88 92.71L57.98 92.98L58.08 93.26L58.19 93.54L58.31 93.83L58.44 94.12L58.58 94.41L58.72 94.71L58.88 95.01L59.04 95.32L59.21 95.63L59.39 95.94L59.58 96.26L59.77 96.58L59.97 96.9L60.82 98.15L61.71 99.33L62.66 100.46L63.65 101.53L64.7 102.53L65.78 103.48L66.91 104.37L68.07 105.19L69.27 105.95L70.5 106.64L71.76 107.27L73.05 107.84L74.37 108.34L75.7 108.78L77.06 109.15L78.43 109.45L79.81 109.69L81.21 109.86L82.61 109.95L84.02 109.98L85.43 109.94L86.84 109.83L88.25 109.65L89.65 109.39L91.05 109.07L92.43 108.67L93.8 108.2L95.15 107.65L96.49 107.03L97.8 106.33L99.09 105.56L100.33 104.71L101.52 103.82L102.65 102.87L103.71 101.88L104.72 100.83L105.67 99.75L106.55 98.62L107.37 97.46L108.13 96.26L108.83 95.03L109.46 93.76L110.03 92.47L110.53 91.16L110.97 89.82L111.34 88.47L111.64 87.1L111.87 85.72L112.04 84.32L112.14 82.92L112.17 81.51L112.13 80.1L112.02 78.69L111.83 77.28L111.58 75.88L111.25 74.48L110.85 73.1L110.38 71.73L109.83 70.38L109.21 69.04L108.51 67.73L107.74 66.45L107.53 66.12L107.32 65.81L107.11 65.51L106.9 65.21L106.69 64.93L106.49 64.65L106.28 64.39L106.07 64.13L105.86 63.88L105.65 63.65L105.44 63.42L105.23 63.2L105.02 62.98L104.81 62.78L104.6 62.59L104.39 62.4L104.18 62.23L103.97 62.06L103.75 61.9L103.54 61.75L103.33 61.61L103.11 61.48L102.9 61.36L102.69 61.25L102.47 61.14L102.25 61.05L102.04 60.96L101.82 60.88L101.6 60.81L101.38 60.75L101.17 60.7L101.12 60.69L101.07 60.68L101.03 60.67L100.98 60.67L100.94 60.66L100.89 60.65L100.85 60.64L100.8 60.64L100.75 60.63L100.71 60.62L100.66 60.62L100.62 60.61L100.57 60.6L100.52 60.6L100.48 60.59L100.43 60.59L100.38 60.59L100.33 60.58L100.29 60.58L100.24 60.57L100.19 60.57L100.14 60.57L100.1 60.56L100.05 60.56L100 60.56L99.95 60.56L99.9 60.56L99.86 60.56L99.81 60.56L99.76 60.56L99.71 60.55L99.25 60.57L98.78 60.61Z" id="aVT8oOidz"></path></defs><g><g><g><use xlink:href="#a4mdfb2HSk" opacity="1" fill="#000000" fill-opacity="1"></use><g><use xlink:href="#a4mdfb2HSk" opacity="1" fill-opacity="0" stroke="#000000" stroke-width="1" stroke-opacity="0"></use></g></g><g><use xlink:href="#hb0grHPQ9" opacity="1" fill="#000000" fill-opacity="1"></use><g><use xlink:href="#hb0grHPQ9" opacity="1" fill-opacity="0" stroke="#000000" stroke-width="1" stroke-opacity="0"></use></g></g><g><use xlink:href="#dicAfPWo0" opacity="1" fill="#000000" fill-opacity="1"></use><g><use xlink:href="#dicAfPWo0" opacity="1" fill-opacity="0" stroke="#000000" stroke-width="1" stroke-opacity="0"></use></g></g><g><use xlink:href="#aVT8oOidz" opacity="1" fill="#000000" fill-opacity="1"></use><g><use xlink:href="#aVT8oOidz" opacity="1" fill-opacity="0" stroke="#000000" stroke-width="1" stroke-opacity="0"></use></g></g></g></g></svg>